
<?xml version="1.0" encoding="UTF-8" standalone="no"?>
<svg
  xmlns="http://www.w3.org/2000/svg"
  width="400"
  height="400"
  viewBox="0 0 400 400"
>
  <path
    fill="#000000"
    d="M302.94 0.02c-63.032-1.559-101.827 89.048-102.543 90.733-.712-1.675-39.377-91.98-102.264-90.727-11.754.234-24.353 3.671-37.705 11.492-103.624 60.703-84.452 232.333 139.887 388.389v.094l.08-.049.08.049v-.094C421.793 254.447 443.987 72.716 340.363 12.012 327.116 4.252 314.612.803 302.94.514zm-203.709 24.23c14.244.229 28.246 6.711 37.992 17.285 33.496 29.883 47.85 74.136 64.32 114.614 9.941-30.189 20.429-60.706 38.399-87.262 13.781-20.143 31.786-40.851 57.325-44.494 30.168-.557 55.991 22.213 68.406 48.397 18.34 40.268 9.795 87-8.058 125.785-33.627 71.518-92.592 127.703-156.86 172.119-20.39-14.817-40.121-30.533-58.809-47.434-41.45-37.974-79.441-81.498-101.996-133.518-9.864-24.012-17.061-50.037-16.215-76.254 1.923-37.416 25.514-74.618 61.319-87.303 4.653-1.393 9.428-2.012 14.176-1.935z"
  />
</svg>